<svg id="Layer_1" data-name="Layer 1" xmlns="http://www.w3.org/2000/svg" viewBox="0 0 213.9 240.78"><defs><style>.cls-1{fill:#fff;}</style></defs><path class="cls-1" d="M213.9,135.5c-.1,59.7-46.8,105.4-107.5,105.2S-.2,194.8,0,134.5C.1,75.9,47.9,29.8,108.4,29.8,166.4,30,213.9,77.5,213.9,135.5Zm-33.7,1.7A161.23,161.23,0,0,0,171,83.5c-17.2-49.4-61-53.4-90.7-41.8C58.5,50.1,47.3,68,40.9,89.3c-9.3,31.3-9.1,62.8.2,94.1,8.4,28.2,26.3,45.9,56.5,50,31.2,4.2,55.9-8.6,69.4-37A136.46,136.46,0,0,0,180.2,137.2Z" transform="translate(0 0.08)"/><path class="cls-1" d="M106.1,9.8h-29C73.8,9.8,71,9.1,71,5s2.9-5,6.1-5q29-.15,57.9,0a9.38,9.38,0,0,1,5.9,2.2,4.8,4.8,0,0,1,.5,4.9,6.56,6.56,0,0,1-4.9,2.5c-10,.3-20.2.2-30.4.2Z" transform="translate(0 0.08)"/></svg>